<svg xmlns="http://www.w3.org/2000/svg" version="1.1" xmlns:xlink="http://www.w3.org/1999/xlink" xmlns:svgjs="http://svgjs.com/svgjs" width="1440" height="560" preserveAspectRatio="none" viewBox="0 0 1440 560"><g mask="url(&quot;#SvgjsMask1074&quot;)" fill="none"><rect width="1440" height="560" x="0" y="0" fill="url(#SvgjsLinearGradient1075)"></rect><path d="M 0,199 C 57.6,169 172.8,52.6 288,49 C 403.2,45.4 460.8,182 576,181 C 691.2,180 748.8,42.2 864,44 C 979.2,45.8 1036.8,183.2 1152,190 C 1267.2,196.8 1382.4,100.4 1440,78L1440 560L0 560z" fill="#184a7e"></path><path d="M 0,389 C 96,420.2 288,558 480,545 C 672,532 768,326 960,324 C 1152,322 1344,492.8 1440,535L1440 560L0 560z" fill="#2264ab"></path></g><defs><mask id="SvgjsMask1074"><rect width="1440" height="560" fill="#ffffff"></rect></mask><linearGradient x1="15.28%" y1="-39.29%" x2="84.72%" y2="139.29%" gradientUnits="userSpaceOnUse" id="SvgjsLinearGradient1075"><stop stop-color="#0e2a47" offset="0"></stop><stop stop-color="rgba(0, 69, 158, 1)" offset="1"></stop></linearGradient></defs></svg>